<svg id="Layer_1" data-name="Layer 1" xmlns="http://www.w3.org/2000/svg" viewBox="0 0 186.75 69.9"><defs><style>.cls-1{fill:#e7252e;}.cls-2{fill:#234b99;}.cls-3{fill:#2c996d;}.cls-4{fill:#fff;}</style></defs><polygon class="cls-1" points="29.15 23.07 29.15 44.15 3.53 53.7 3.53 39.51 8.98 36.78 8.98 45.75 23.7 40.07 23.7 30.3 17.6 32.94 15.18 33.98 16.99 27.15 20.41 14.25 8.98 19.58 8.98 25.25 3.53 27.75 3.53 16.29 29.16 5.01 27.38 10.73 22.79 25.38 29.15 23.07"/><path class="cls-2" d="M49.85,12.19,34.17,4.83v39.3l25.62,9.35V26.35C59.79,20.49,56,15.07,49.85,12.19ZM53.79,45.4l-13.08-5V13.14l6.47,3.55c4.41,2.07,6.34,4.87,6.34,9.09Z"/><polygon class="cls-3" points="31.46 47.95 7.42 56.8 34.66 63.54 55.88 56.81 31.46 47.95"/><path class="cls-4" d="M77.35,25.48a2.76,2.76,0,0,0,2.16-.92,3.25,3.25,0,0,0,.82-2.24V15.56H78.75v6.85a1.71,1.71,0,0,1-.38,1.18,1.33,1.33,0,0,1-1,.4,1.43,1.43,0,0,1-1.09-.41,1.76,1.76,0,0,1-.4-1.26V21.26l-1.58.35v.72a3.17,3.17,0,0,0,.83,2.29A3,3,0,0,0,77.35,25.48Z"/><path class="cls-4" d="M88.65,25.48a3.55,3.55,0,0,0,2.54-.94,3.46,3.46,0,0,0,1-2.62V15.56H90.6v6.32a2.21,2.21,0,0,1-.51,1.57,2.2,2.2,0,0,1-2.89,0,2.17,2.17,0,0,1-.52-1.57V15.56H85.11v6.36a3.47,3.47,0,0,0,1,2.62A3.51,3.51,0,0,0,88.65,25.48Z"/><polygon class="cls-4" points="98.68 17.91 103.57 25.28 105.14 25.28 105.14 15.56 103.56 15.56 103.56 22.48 99.1 15.63 99.06 15.56 97.1 15.56 97.1 25.28 98.68 25.28 98.68 17.91"/><rect class="cls-4" x="110.19" y="15.56" width="1.61" height="9.72"/><path class="cls-4" d="M123.47,24.91a4.79,4.79,0,0,0,1.82-1.76,5.22,5.22,0,0,0,.72-2.73,5.39,5.39,0,0,0-.42-2.15,4.67,4.67,0,0,0-1.11-1.6,5.14,5.14,0,0,0-1.56-1,4.84,4.84,0,0,0-3.59,0,5.09,5.09,0,0,0-1.55,1,4.69,4.69,0,0,0-1.12,1.6,5.57,5.57,0,0,0-.41,2.15,5.13,5.13,0,0,0,.72,2.73,4.69,4.69,0,0,0,1.81,1.76,5.11,5.11,0,0,0,4.69,0Zm0-1.85a3.3,3.3,0,0,1-4.63,0,3.56,3.56,0,0,1-1-2.64,3.56,3.56,0,0,1,1-2.64,3.32,3.32,0,0,1,4.63,0,3.52,3.52,0,0,1,1,2.64A3.52,3.52,0,0,1,123.44,23.06Z"/><path class="cls-4" d="M132.05,21.42h1.19l2.16,3.86h1.84l-2.27-4a2.84,2.84,0,0,0,1.56-.94,2.74,2.74,0,0,0,.65-1.84,2.9,2.9,0,0,0-.83-2.1,3,3,0,0,0-2.2-.85h-3.69v9.72h1.59Zm3.06-1.85a1.72,1.72,0,0,1-1.2.4h-1.86V17h1.86a1.73,1.73,0,0,1,1.2.41,1.4,1.4,0,0,1,.45,1.09A1.33,1.33,0,0,1,135.11,19.57Z"/><polygon class="cls-4" points="83.92 36.45 81.64 29.42 81.61 29.32 80.03 29.32 77.77 36.37 75.82 29.43 75.79 29.32 74.16 29.32 76.94 38.94 76.97 39.05 78.48 39.05 80.82 31.7 83.18 39.05 84.73 39.05 87.5 29.32 85.86 29.32 83.92 36.45"/><polygon class="cls-4" points="97.52 30.81 97.52 29.32 91.5 29.32 91.5 39.05 97.52 39.05 97.52 37.55 93.09 37.55 93.09 34.94 97.11 34.94 97.11 33.44 93.09 33.44 93.09 30.81 97.52 30.81"/><path class="cls-4" d="M107.2,34a2.33,2.33,0,0,0,.76-.67,2.27,2.27,0,0,0,.41-1.35,2.52,2.52,0,0,0-.81-2,3.09,3.09,0,0,0-2.17-.74h-3.22V39h3.44a3.18,3.18,0,0,0,2.2-.76,2.5,2.5,0,0,0,.86-1.94,2.56,2.56,0,0,0-.49-1.53A2.18,2.18,0,0,0,107.2,34Zm-.83-1a1.62,1.62,0,0,1-1.13.38h-1.49v-2.7h1.44a1.76,1.76,0,0,1,1.17.36,1.23,1.23,0,0,1,.42,1A1.28,1.28,0,0,1,106.37,33.07Zm.69,3.19a1.23,1.23,0,0,1-.44,1,1.81,1.81,0,0,1-1.19.38h-1.68V34.85h1.73a1.66,1.66,0,0,1,1.18.38A1.34,1.34,0,0,1,107.06,36.26Z"/><path class="cls-4" d="M78.64,43.09H75.2v9.72h3.42a4.62,4.62,0,0,0,3.3-1.29A4.67,4.67,0,0,0,83.27,48a4.83,4.83,0,0,0-1.33-3.59A4.56,4.56,0,0,0,78.64,43.09Zm3,4.88a3.43,3.43,0,0,1-.87,2.52,3,3,0,0,1-2.2.88H76.79V44.52H78.6a2.93,2.93,0,0,1,2.19.89A3.55,3.55,0,0,1,81.65,48Z"/><polygon class="cls-4" points="87.72 52.81 93.74 52.81 93.74 51.32 89.3 51.32 89.3 48.7 93.33 48.7 93.33 47.2 89.3 47.2 89.3 44.58 93.74 44.58 93.74 43.09 87.72 43.09 87.72 52.81"/><polygon class="cls-4" points="101.7 50.59 98.98 43.18 98.94 43.09 97.26 43.09 100.89 52.72 100.92 52.81 102.4 52.81 106.15 43.09 104.48 43.09 101.7 50.59"/><polygon class="cls-4" points="110.07 52.81 116.08 52.81 116.08 51.32 111.65 51.32 111.65 48.7 115.67 48.7 115.67 47.2 111.65 47.2 111.65 44.58 116.08 44.58 116.08 43.09 110.07 43.09 110.07 52.81"/><polygon class="cls-4" points="122.32 43.09 120.73 43.09 120.73 52.81 126.78 52.81 126.78 51.3 122.32 51.3 122.32 43.09"/><path class="cls-4" d="M138.12,44.19a5.17,5.17,0,0,0-1.55-1,4.84,4.84,0,0,0-3.59,0,5.29,5.29,0,0,0-1.55,1,4.69,4.69,0,0,0-1.12,1.6,5.57,5.57,0,0,0-.41,2.15,5.19,5.19,0,0,0,.72,2.74,4.6,4.6,0,0,0,1.81,1.75,5,5,0,0,0,4.69,0,4.69,4.69,0,0,0,1.82-1.75,5.28,5.28,0,0,0,.72-2.74,5.39,5.39,0,0,0-.42-2.15A4.56,4.56,0,0,0,138.12,44.19Zm-.07,3.75a3.56,3.56,0,0,1-1,2.64,3.3,3.3,0,0,1-4.63,0,4.14,4.14,0,0,1,0-5.28,3.32,3.32,0,0,1,4.63,0A3.56,3.56,0,0,1,138.05,47.94Z"/><path class="cls-4" d="M147.68,43.09h-3.57v9.72h1.58V48.94h2a3,3,0,0,0,2.2-.82,3,3,0,0,0,0-4.19A3,3,0,0,0,147.68,43.09ZM149.13,46a1.35,1.35,0,0,1-.45,1.07,1.84,1.84,0,0,1-1.24.39h-1.75v-3h1.75a1.75,1.75,0,0,1,1.24.41A1.37,1.37,0,0,1,149.13,46Z"/><polygon class="cls-4" points="154.99 52.81 161 52.81 161 51.32 156.57 51.32 156.57 48.7 160.59 48.7 160.59 47.2 156.57 47.2 156.57 44.58 161 44.58 161 43.09 154.99 43.09 154.99 52.81"/><path class="cls-4" d="M171.73,47.88a2.78,2.78,0,0,0,.65-1.85,2.88,2.88,0,0,0-.84-2.1,3,3,0,0,0-2.19-.84h-3.7v9.72h1.6V48.94h1.19l2.16,3.87h1.84l-2.28-4A2.91,2.91,0,0,0,171.73,47.88Zm-1-1.85a1.34,1.34,0,0,1-.44,1.07,1.79,1.79,0,0,1-1.2.39h-1.86v-3h1.86a1.7,1.7,0,0,1,1.2.41A1.36,1.36,0,0,1,170.75,46Z"/><path class="cls-4" d="M182.53,48.28a3.52,3.52,0,0,0-1.89-1l-1.41-.3a1.43,1.43,0,0,1-.82-.45,1.14,1.14,0,0,1-.28-.79,1.26,1.26,0,0,1,.47-1,1.76,1.76,0,0,1,1.21-.42,1.73,1.73,0,0,1,1.3.46,1.77,1.77,0,0,1,.56,1l0,.17,1.44-.51,0-.12a3.18,3.18,0,0,0-1-1.71,3.3,3.3,0,0,0-2.31-.74,3.24,3.24,0,0,0-2.3.88,2.73,2.73,0,0,0-1,2.07,2.52,2.52,0,0,0,.67,1.78,3.23,3.23,0,0,0,1.75.93l1.34.3a1.85,1.85,0,0,1,1,.49,1.18,1.18,0,0,1,.32.84,1.23,1.23,0,0,1-.45,1,2.07,2.07,0,0,1-1.35.39,2,2,0,0,1-1.5-.54,2.14,2.14,0,0,1-.63-1.36v-.17l-1.53.49v.11a3.4,3.4,0,0,0,1.09,2.07,3.71,3.71,0,0,0,2.58.87,3.48,3.48,0,0,0,2.45-.87,2.71,2.71,0,0,0,.95-2.07A2.6,2.6,0,0,0,182.53,48.28Z"/></svg>